# xmcd CD database file
#
# Track frame offsets:
#	150
#	11868
#	31772
#	48329
#	61601
#	82896
#	102408
#	119268
#	134302
#	158854
#	177520
#	195629
#	213942
#	231034
#	246115
#	262001
#	276914
#	294677
#
# Disc length: 4144 seconds
#
# Revision: 3
# Processed by: cddbd v1.5.2PL0 Copyright (c) Steve Scherf et al.
# Submitted via: CDex 1.51
#
DISCID=fd102e12
DTITLE=Various Artist - MRH131
DYEAR=1900
DGENRE=Blues
TTITLE0=Lost Frequences - Are You With Me
TTITLE1=Years And Years - Shine
TTITLE2=Rachel Platten - Fight Song
TTITLE3=Pharrell Williams - Freedom
TTITLE4=Birdy - Wings
TTITLE5=Zedd Ft Selena Gomez - I Want You To Know
TTITLE6=Deorro X Chris Brown - Five More Hours
TTITLE7=Major Lazer Ft Ellie Goulding And Tarrus Riley - Powerful
TTITLE8=Disclosure Ft Gregory Porter - Holding On
TTITLE9=Avicii - Waiting For Love
TTITLE10=Flo Rida Ft Robin Thicke and Verdine White - I Don't Like It I Love It
TTITLE11=Krept and Konan Ft Jeremih - Freak Of The Week
TTITLE12=The Weeknd - Can't Feel My Face
TTITLE13=John Newman - Come And Get It
TTITLE14=Calvin Harris and The Disciples - How Deep Is Your Love
TTITLE15=Silento - Watch Me
TTITLE16=Selena Gomez Ft ASAP Rocky - Good For You
TTITLE17=Fetty Wap - 679
EXTD=
EXTT0=
EXTT1=
EXTT2=
EXTT3=
EXTT4=
EXTT5=
EXTT6=
EXTT7=
EXTT8=
EXTT9=
EXTT10=
EXTT11=
EXTT12=
EXTT13=
EXTT14=
EXTT15=
EXTT16=
EXTT17=
PLAYORDER=
